<svg width="32" height="31" viewBox="0 0 32 31" fill="none" xmlns="http://www.w3.org/2000/svg">
<path d="M9.33334 25.8333H22.6667" stroke="black" stroke-width="2.3" stroke-linecap="round" stroke-linejoin="round"/>
<path d="M13.3333 25.8333C20.6667 22.6042 14.4 17.5667 17.3333 12.9167" stroke="black" stroke-width="2" stroke-linecap="round" stroke-linejoin="round"/>
<path d="M12.6667 12.1417C14.1333 13.175 15.0667 14.9833 15.7333 16.9208C13.0667 17.4375 11.0667 17.4375 9.33334 16.5333C7.73334 15.7583 6.26668 14.0792 5.33334 11.1083C9.06668 10.4625 11.2 11.1083 12.6667 12.1417Z" stroke="black" stroke-width="2" stroke-linecap="round" stroke-linejoin="round"/>
<path d="M18.8 7.75C17.7834 9.2891 17.2721 11.0904 17.3333 12.9167C19.8667 12.7875 21.7333 12.1417 23.0667 11.1083C24.4 9.81667 25.2 8.1375 25.3333 5.16667C21.7333 5.29583 20 6.45833 18.8 7.75Z" stroke="black" stroke-width="2" stroke-linecap="round" stroke-linejoin="round"/>
</svg>
